<svg id="Layer_1" data-name="Layer 1" xmlns="http://www.w3.org/2000/svg" viewBox="0 0 144 144"><defs><style>.cls-1,.cls-3{fill:none;}.cls-1,.cls-2,.cls-3,.cls-4{stroke:#000;stroke-miterlimit:10;}.cls-1{stroke-width:2px;}.cls-4{stroke-width:0.25px;}</style></defs><title>im-assets</title><line class="cls-1" x1="72" y1="108.92" x2="38.52" y2="123.76"/><line class="cls-1" x1="72" y1="108.92" x2="105.48" y2="123.76"/><path d="M18.74,107.54a7.38,7.38,0,0,1-7.37-7.37V50.51a16.54,16.54,0,0,1-2-1.57v51.23a9.38,9.38,0,0,0,9.37,9.37H110.6a16.09,16.09,0,0,1-1.69-2Z"/><path d="M125.26,25.36H32.38a16.56,16.56,0,0,1,1.64,2h91.25a7.38,7.38,0,0,1,7.37,7.37V86.31a16.09,16.09,0,0,1,2,2.18V34.73A9.38,9.38,0,0,0,125.26,25.36Z"/><circle class="cls-1" cx="72" cy="67.82" r="23.68"/><line class="cls-1" x1="72" y1="43.21" x2="72" y2="91.7"/><line class="cls-1" x1="48.32" y1="67.82" x2="95.68" y2="67.82"/><ellipse class="cls-1" cx="72" cy="67.93" rx="12.56" ry="23.58"/><path class="cls-2" d="M88.09,50.58c-.4,4.57-7.46,8.23-16.09,8.23s-15.68-3.66-16.09-8.23h-.8c.39,5,7.8,9.06,16.89,9.06s16.5-4,16.89-9.06Z"/><path class="cls-2" d="M55.11,85.34h.8c.4-4.57,7.46-8.23,16.09-8.23s15.68,3.66,16.09,8.23h.8c-.39-5-7.8-9.06-16.89-9.06S55.5,80.31,55.11,85.34Z"/><circle class="cls-1" cx="20.31" cy="36.6" r="16.36"/><circle class="cls-1" cx="20.31" cy="36.6" r="12.1"/><path class="cls-1" d="M129.53,113.06A10.85,10.85,0,1,1,138.44,103a16.09,16.09,0,1,0-6.29,9.23A10.8,10.8,0,0,1,129.53,113.06Z"/><path class="cls-3" d="M112.33,34.28c0,3.52-2,6.37-4.47,6.37"/><path class="cls-3" d="M112.86,34.28c0,3.52,2,6.37,4.47,6.37"/><path class="cls-3" d="M112.33,47.65c0-3.52-2-6.37-4.47-6.37"/><path class="cls-3" d="M112.86,47.65c0-3.52,2-6.37,4.47-6.37"/><path class="cls-3" d="M106.33,46.28c0,3.52-2,6.37-4.47,6.37"/><path class="cls-3" d="M106.86,46.28c0,3.52,2,6.37,4.47,6.37"/><path class="cls-3" d="M106.33,59.65c0-3.52-2-6.37-4.47-6.37"/><path class="cls-3" d="M106.86,59.65c0-3.52,2-6.37,4.47-6.37"/><path class="cls-3" d="M118.33,46.28c0,3.52-2,6.37-4.47,6.37"/><path class="cls-3" d="M118.86,46.28c0,3.52,2,6.37,4.47,6.37"/><path class="cls-3" d="M118.33,59.65c0-3.52-2-6.37-4.47-6.37"/><path class="cls-3" d="M118.86,59.65c0-3.52,2-6.37,4.47-6.37"/><polygon class="cls-4" points="26.09 86.14 30.1 90.92 34.12 95.71 36.25 89.84 38.39 83.97 32.24 85.06 26.09 86.14"/><rect class="cls-4" x="25.16" y="89.49" width="3.07" height="8.58" transform="translate(81.38 13.05) rotate(50)"/></svg>