<svg id="Layer_1" data-name="Layer 1" xmlns="http://www.w3.org/2000/svg" viewBox="0 0 144 144"><defs><style>.cls-1,.cls-2,.cls-3{fill:none;}.cls-1,.cls-3{stroke:#000;stroke-miterlimit:10;}.cls-1{stroke-width:2px;}</style></defs><title>im-assets</title><line class="cls-1" x1="12.27" y1="77.06" x2="12.27" y2="107.06"/><line class="cls-1" x1="131.27" y1="77.06" x2="131.27" y2="107.06"/><circle class="cls-1" cx="72" cy="29.56" r="16.36"/><circle class="cls-1" cx="72" cy="29.56" r="12.1"/><polygon class="cls-2" points="72 55.6 16.06 77.06 127.94 77.06 72 55.6"/><polygon class="cls-2" points="16.05 107.06 72 128.66 127.95 107.06 127.94 107.06 16.06 107.06 16.05 107.06"/><path class="cls-2" d="M63.52,51.32a11.82,11.82,0,0,1,11.66,3.35l11.41,4.38a15,15,0,0,0-23.07-7.73Z"/><path class="cls-2" d="M73.56,72.26a11.84,11.84,0,0,1-13,.64A15,15,0,0,0,87.13,61.4l-10-3.82A11.82,11.82,0,0,1,73.56,72.26Z"/><path d="M81.16,75.64A15,15,0,0,1,60.52,72.9,11.81,11.81,0,0,0,77.18,57.59L74,56.37c.16.18.31.37.46.56A9.81,9.81,0,1,1,57.55,66.6l-1.9.61a17,17,0,0,0,14,13.16,17.25,17.25,0,0,0,2.61.2A17,17,0,0,0,89.22,62.2l-2.08-.8A15,15,0,0,1,81.16,75.64Z"/><path d="M75.18,54.68a11.82,11.82,0,0,0-11.66-3.35,15,15,0,0,1,23.07,7.73l2.3.88a17,17,0,0,0-31.59-4.48L59,56.56A9.81,9.81,0,0,1,70.83,53.9L72,53.45Z"/><path d="M88.89,59.94a17,17,0,0,1,.32,2.27l38.72,14.86h5.58Z"/><path d="M70.83,53.9,10.48,77.06h5.58L72,55.6l2,.77A9.73,9.73,0,0,0,70.83,53.9Z"/><path d="M76.08,55.75a12,12,0,0,0-.9-1.08L72,53.45l-1.17.45A9.73,9.73,0,0,1,74,56.37l3.17,1.21A11.8,11.8,0,0,0,76.08,55.75Z"/><path d="M86.59,59.05a15,15,0,0,1,.54,2.35l2.08.8a17,17,0,0,0-.32-2.27Z"/><polygon points="127.95 107.06 72 128.66 16.05 107.06 16.06 107.06 10.49 107.06 71.64 130.66 72 130.8 133.51 107.06 127.94 107.06 127.95 107.06"/><polygon points="52.25 91.03 16.05 77.06 16.06 77.06 10.49 77.06 49.46 92.1 52.25 91.03"/><polygon points="127.95 77.06 91.75 91.03 94.54 92.1 133.51 77.06 127.94 77.06 127.95 77.06"/><polygon points="72 98.66 55.03 92.11 52.25 93.18 71.64 100.66 72 100.8 91.75 93.18 88.97 92.11 72 98.66"/><polygon points="52.25 91.03 49.46 92.1 52.25 93.18 55.03 92.11 52.25 91.03"/><polygon points="88.97 92.11 91.75 93.18 94.54 92.1 91.75 91.03 88.97 92.11"/><line class="cls-1" x1="72" y1="98.66" x2="72" y2="128.66"/><path class="cls-3" d="M97.58,70.38c0,3.52-2,6.37-4.47,6.37"/><path class="cls-3" d="M98.11,70.38c0,3.52,2,6.37,4.47,6.37"/><path class="cls-3" d="M97.58,83.75c0-3.52-2-6.37-4.47-6.37"/><path class="cls-3" d="M98.11,83.75c0-3.52,2-6.37,4.47-6.37"/></svg>